<svg xmlns="http://www.w3.org/2000/svg" viewBox="0 0 419.3 120.3" width="419.3" height="120.3" role="img" aria-label="Syncery">
  <defs>
    <linearGradient id="g" x1="16.0" y1="0" x2="397.3" y2="0" gradientUnits="userSpaceOnUse">
      <stop offset="0" stop-color="#00A38C"/><stop offset="1" stop-color="#0A86CF"/>
    </linearGradient>
  </defs>
  <g fill="url(#g)">
    <path d="M36.85 82.46Q31.78 82.46 27.75 80.81Q23.72 79.16 21.31 75.94Q18.91 72.70 18.77 68.14L30.79 68.14Q31.05 70.72 32.56 72.07Q34.09 73.42 36.52 73.42Q39.04 73.42 40.48 72.27Q41.94 71.11 41.94 69.07Q41.94 67.35 40.78 66.23Q39.63 65.11 37.95 64.39Q36.26 63.65 33.16 62.73Q28.67 61.34 25.83 59.96Q22.99 58.57 20.95 55.87Q18.91 53.16 18.91 48.80Q18.91 42.34 23.59 38.68Q28.27 35.01 35.80 35.01Q43.45 35.01 48.13 38.68Q52.83 42.34 53.16 48.87L40.95 48.87Q40.81 46.63 39.30 45.34Q37.78 44.05 35.41 44.05Q33.36 44.05 32.10 45.14Q30.85 46.23 30.85 48.28Q30.85 50.52 32.96 51.77Q35.08 53.02 39.56 54.48Q44.05 55.99 46.86 57.38Q49.66 58.77 51.70 61.41Q53.75 64.05 53.75 68.20Q53.75 72.16 51.73 75.40Q49.72 78.64 45.90 80.56Q42.07 82.46 36.85 82.46ZM112.58 35.67L96.54 66.69L96.54 82.00L85.25 82.00L85.25 66.69L69.22 35.67L82.02 35.67L91.00 55.07L99.91 35.67L112.58 35.67ZM173.12 82.00L161.84 82.00L142.96 53.42L142.96 82.00L131.68 82.00L131.68 35.67L142.96 35.67L161.84 64.38L161.84 35.67L173.12 35.67L173.12 82.00ZM190.30 58.77Q190.30 51.91 193.27 46.52Q196.24 41.14 201.55 38.14Q206.87 35.14 213.59 35.14Q221.84 35.14 227.72 39.50Q233.60 43.85 235.58 51.37L223.16 51.37Q221.78 48.47 219.23 46.96Q216.70 45.43 213.47 45.43Q208.25 45.43 205.01 49.06Q201.79 52.69 201.79 58.77Q201.79 64.84 205.01 68.47Q208.25 72.10 213.47 72.10Q216.70 72.10 219.23 70.58Q221.78 69.07 223.16 66.16L235.58 66.16Q233.60 73.69 227.72 78.01Q221.84 82.33 213.59 82.33Q206.87 82.33 201.55 79.33Q196.24 76.33 193.27 70.99Q190.30 65.63 190.30 58.77ZM265.96 44.71L265.96 54.08L281.07 54.08L281.07 62.80L265.96 62.80L265.96 72.96L283.05 72.96L283.05 82.00L254.67 82.00L254.67 35.67L283.05 35.67L283.05 44.71L265.96 44.71ZM325.77 82.00L316.14 64.51L313.43 64.51L313.43 82.00L302.15 82.00L302.15 35.67L321.09 35.67Q326.57 35.67 330.43 37.58Q334.29 39.49 336.20 42.83Q338.12 46.16 338.12 50.26Q338.12 54.88 335.51 58.51Q332.90 62.14 327.82 63.65L338.51 82.00L325.77 82.00ZM313.43 56.53L320.43 56.53Q323.53 56.53 325.07 55.01Q326.63 53.49 326.63 50.71Q326.63 48.07 325.07 46.56Q323.53 45.04 320.43 45.04L313.43 45.04L313.43 56.53ZM397.34 35.67L381.29 66.69L381.29 82.00L370.01 82.00L370.01 66.69L353.97 35.67L366.77 35.67L375.75 55.07L384.66 35.67L397.34 35.67Z"/>
    <circle cx="34.88" cy="101.00" r="3.3"/><circle cx="90.67" cy="101.00" r="3.3"/><circle cx="150.35" cy="101.00" r="3.3"/><circle cx="211.85" cy="101.00" r="3.3"/><circle cx="266.82" cy="101.00" r="3.3"/><circle cx="318.28" cy="101.00" r="3.3"/><circle cx="375.42" cy="101.00" r="3.3"/>
  </g>
  <path d="M10.00 101.00 L403.34 101.00" fill="none" stroke="url(#g)" stroke-width="1.6" stroke-linecap="round" opacity="0.45"/>
</svg>
